<svg width="128" height="124" viewBox="0 0 128 124" fill="none" xmlns="http://www.w3.org/2000/svg">
<g clip-path="url(#clip0_731_7179)">
<path d="M89.5131 73.8691H40.9009V109.52H89.5131V73.8691Z" fill="#F7C9C4"/>
<path d="M92.2655 42.521H35.9687C31.5468 42.521 27.9622 46.1061 27.9622 50.5286C27.9622 54.951 31.5468 58.5361 35.9687 58.5361H92.2655C96.6874 58.5361 100.272 54.951 100.272 50.5286C100.272 46.1061 96.6874 42.521 92.2655 42.521Z" fill="#F7C9C4"/>
<path d="M88.812 35.5746C76.4162 38.3902 63.8676 32.7591 60.6759 27.5044C55.3618 35.6238 44.7883 36.3495 41.2447 36.355C40.8976 38.0122 40.723 39.7009 40.7236 41.3941V70.9198C40.7233 74.1238 41.354 77.2966 42.5797 80.2568C43.8054 83.217 45.6021 85.9068 47.8673 88.1725C50.1325 90.4382 52.8217 92.2354 55.7814 93.4616C58.7412 94.6878 61.9134 95.3189 65.117 95.3189C71.5873 95.3189 77.7925 92.7483 82.3677 88.1726C86.9428 83.5969 89.5131 77.3909 89.5131 70.9198V41.3941C89.5145 39.4331 89.2791 37.4791 88.812 35.5746Z" fill="#FFD8CF"/>
<path d="M104.964 11.9281H86.5478C84.1357 8.48282 80.928 5.67045 77.1972 3.72972C73.4663 1.789 69.3223 0.777262 65.1169 0.78028C58.7395 0.782077 52.582 3.11116 47.7996 7.3306C43.0171 11.55 39.9385 17.3699 39.1413 23.698C36.9145 24.7812 35.0373 26.4691 33.7242 28.5687C32.4112 30.6684 31.7152 33.0951 31.7158 35.5716C31.7161 38.3382 32.5852 41.0349 34.2005 43.2809C35.8157 45.5269 38.0956 47.2087 40.7181 48.089V41.3911C40.7174 39.6979 40.892 38.0091 41.2391 36.3518C44.7855 36.3518 55.3563 35.6207 60.6704 27.5012C63.8621 32.756 76.4107 38.3872 88.8065 35.5716C89.2735 37.4761 89.5089 39.4301 89.5076 41.3911V48.1299C92.1601 47.2707 94.4725 45.5937 96.1132 43.3391C97.7539 41.0845 98.6387 38.3682 98.6408 35.5797C98.6415 33.7113 98.2445 31.8643 97.476 30.1613C101.838 26.1153 105.417 20.0802 104.964 11.9281Z" fill="#455CD6"/>
<path d="M55.2965 46.0212C56.5394 46.0212 57.547 45.0135 57.547 43.7704C57.547 42.5273 56.5394 41.5195 55.2965 41.5195C54.0535 41.5195 53.0459 42.5273 53.0459 43.7704C53.0459 45.0135 54.0535 46.0212 55.2965 46.0212Z" fill="#1D2B9F"/>
<path d="M74.6512 46.0212C75.8942 46.0212 76.9018 45.0135 76.9018 43.7704C76.9018 42.5273 75.8942 41.5195 74.6512 41.5195C73.4082 41.5195 72.4006 42.5273 72.4006 43.7704C72.4006 45.0135 73.4082 46.0212 74.6512 46.0212Z" fill="#1D2B9F"/>
<path d="M65.117 55.5645C65.0084 55.5645 64.9043 55.5215 64.8276 55.4448C64.7509 55.368 64.7078 55.2638 64.7078 55.1553V43.7701C64.7078 43.6615 64.7509 43.5575 64.8276 43.4807C64.9043 43.404 65.0084 43.3608 65.117 43.3608C65.2255 43.3608 65.3296 43.404 65.4063 43.4807C65.483 43.5575 65.5261 43.6615 65.5261 43.7701V55.1553C65.5261 55.2638 65.483 55.368 65.4063 55.4448C65.3296 55.5215 65.2255 55.5645 65.117 55.5645Z" fill="#1D2B9F"/>
<path d="M24.2412 30.5354L19.1235 32.4861L12.4182 19.9305L20.8967 16.7002L24.2412 30.5354Z" fill="#FF785F"/>
<path d="M25.0176 32.3818L19.8093 34.3657L21.6075 39.0877L26.8158 37.1038L25.0176 32.3818Z" fill="#FF785F"/>
<path d="M59.5199 123.783H14.4731V63.7222L59.5199 65.2828V123.783Z" fill="#8091E4"/>
<path d="M117.871 123.783H72.8242V65.2828L117.871 63.7222V123.783Z" fill="#8091E4"/>
<path d="M72.8243 65.2832H59.52V123.783H72.8243V65.2832Z" fill="#455CD6"/>
<path d="M3.50958 99.6431C3.50958 99.6431 -1.1443 85.9606 11.5025 79.5682C20.5048 75.0229 23.8301 79.3282 22.0679 81.901C20.3056 84.4738 19.1053 84.7384 19.1053 84.7384C19.1053 84.7384 24.3184 82.8613 24.9731 87.8159C25.6279 92.7705 19.9537 92.6723 19.9537 92.6723C19.9537 92.6723 25.3714 92.2685 25.9279 96.7648C26.4844 101.261 20.9412 101.403 20.9412 101.403C20.9412 101.403 26.9591 100.953 26.2089 106.472C25.4587 111.991 6.81859 111.691 3.50958 99.6431Z" fill="#FFD8CF"/>
<path d="M127.543 99.6431C127.543 99.6431 132.197 85.9606 119.55 79.5682C110.548 75.0229 107.222 79.3282 108.985 81.901C110.747 84.4738 111.947 84.7384 111.947 84.7384C111.947 84.7384 106.734 82.8613 106.079 87.8159C105.425 92.7705 111.099 92.6723 111.099 92.6723C111.099 92.6723 105.681 92.2685 105.125 96.7648C104.568 101.261 110.111 101.403 110.111 101.403C110.111 101.403 104.093 100.953 104.844 106.472C105.594 111.991 124.234 111.691 127.543 99.6431Z" fill="#FFD8CF"/>
<path d="M53.766 53.9089C51.3865 53.9024 49.1064 52.954 47.424 51.2709C45.7417 49.5879 44.7941 47.3072 44.7883 44.9273C44.7941 42.5475 45.7417 40.2668 47.424 38.5838C49.1064 36.9007 51.3865 35.9523 53.766 35.9458C56.146 35.9516 58.4269 36.8996 60.1098 38.5827C61.7927 40.2658 62.7407 42.5471 62.7465 44.9273C62.7407 47.3076 61.7927 49.5887 60.1098 51.2718C58.4269 52.955 56.146 53.9031 53.766 53.9089ZM53.766 36.7643C51.6036 36.7708 49.5316 37.6329 48.0027 39.1625C46.4739 40.692 45.6125 42.7646 45.6067 44.9273C45.6125 47.0901 46.4739 49.1627 48.0027 50.6922C49.5316 52.2218 51.6036 53.0839 53.766 53.0904C55.929 53.0846 58.0017 52.2228 59.5311 50.6931C61.0605 49.1635 61.9223 47.0906 61.9281 44.9273C61.9223 42.7641 61.0605 40.6912 59.5311 39.1615C58.0017 37.6319 55.929 36.7701 53.766 36.7643Z" fill="#1D2B9F"/>
<path d="M76.468 53.9089C74.088 53.9031 71.8071 52.955 70.1242 51.2718C68.4413 49.5887 67.4933 47.3076 67.4875 44.9273C67.4933 42.5471 68.4413 40.2658 70.1242 38.5827C71.8071 36.8996 74.088 35.9516 76.468 35.9458C78.848 35.9516 81.1288 36.8996 82.8117 38.5827C84.4947 40.2658 85.4427 42.5471 85.4484 44.9273C85.4427 47.3076 84.4947 49.5887 82.8117 51.2718C81.1288 52.955 78.848 53.9031 76.468 53.9089ZM76.468 36.7643C74.305 36.7701 72.2323 37.6319 70.7029 39.1615C69.1735 40.6912 68.3117 42.7641 68.3059 44.9273C68.3117 47.0906 69.1735 49.1635 70.7029 50.6931C72.2323 52.2228 74.305 53.0846 76.468 53.0904C78.6309 53.0846 80.7036 52.2228 82.2331 50.6931C83.7625 49.1635 84.6243 47.0906 84.63 44.9273C84.6243 42.7641 83.7625 40.6912 82.2331 39.1615C80.7036 37.6319 78.6309 36.7701 76.468 36.7643Z" fill="#1D2B9F"/>
<path d="M68.4561 42.297H61.7808C61.6723 42.297 61.5682 42.2539 61.4914 42.1771C61.4147 42.1004 61.3716 41.9963 61.3716 41.8878C61.3716 41.7792 61.4147 41.6752 61.4914 41.5984C61.5682 41.5217 61.6723 41.4785 61.7808 41.4785H68.4561C68.5646 41.4785 68.6687 41.5217 68.7454 41.5984C68.8222 41.6752 68.8653 41.7792 68.8653 41.8878C68.8646 41.9961 68.8212 42.0997 68.7446 42.1763C68.6681 42.2529 68.5644 42.2963 68.4561 42.297Z" fill="#1D2B9F"/>
</g>
<defs>
<clipPath id="clip0_731_7179">
<rect width="127" height="123" fill="white" transform="translate(0.617188 0.783203)"/>
</clipPath>
</defs>
</svg>
