<svg width="20" height="20" viewBox="0 0 20 20" fill="none" xmlns="http://www.w3.org/2000/svg">
<path fill-rule="evenodd" clip-rule="evenodd" d="M9.305 17.29C9.44147 17.3822 9.59482 17.4465 9.75623 17.4793C9.91765 17.5121 10.0839 17.5126 10.2456 17.4809C10.4072 17.4491 10.5609 17.3858 10.698 17.2945C10.8351 17.2031 10.9527 17.0856 11.0442 16.9487C11.1357 16.8117 11.1992 16.658 11.2311 16.4964C11.2631 16.3348 11.2627 16.1685 11.2301 16.0071C11.1976 15.8456 11.1334 15.6922 11.0414 15.5556C10.9493 15.4191 10.8312 15.302 10.6938 15.2112C10.4183 15.0419 10.0879 14.9859 9.77195 15.055C9.45604 15.1241 9.17921 15.3129 8.9996 15.5819C8.82 15.8508 8.7516 16.1788 8.80878 16.4971C8.86597 16.8154 9.04427 17.0992 9.30625 17.2888L9.305 17.29ZM10 11.25C9.66848 11.25 9.35054 11.1183 9.11612 10.8839C8.8817 10.6495 8.75 10.3315 8.75 10C8.75 9.66848 8.8817 9.35054 9.11612 9.11612C9.35054 8.8817 9.66848 8.75 10 8.75C10.3315 8.75 10.6495 8.8817 10.8839 9.11612C11.1183 9.35054 11.25 9.66848 11.25 10C11.25 10.3315 11.1183 10.6495 10.8839 10.8839C10.6495 11.1183 10.3315 11.25 10 11.25ZM10 5C9.66848 5 9.35054 4.8683 9.11612 4.63388C8.8817 4.39946 8.75 4.08152 8.75 3.75C8.75 3.41848 8.8817 3.10054 9.11612 2.86612C9.35054 2.6317 9.66848 2.5 10 2.5C10.3315 2.5 10.6495 2.6317 10.8839 2.86612C11.1183 3.10054 11.25 3.41848 11.25 3.75C11.25 4.08152 11.1183 4.39946 10.8839 4.63388C10.6495 4.8683 10.3315 5 10 5Z" fill="#222222"/>
</svg>
