<svg width="20" height="21" viewBox="0 0 20 21" fill="none" xmlns="http://www.w3.org/2000/svg">
<path fill-rule="evenodd" clip-rule="evenodd" d="M17.3173 3.33694C17.3755 3.39499 17.4217 3.46396 17.4532 3.5399C17.4847 3.61583 17.5009 3.69723 17.5009 3.77944C17.5009 3.86165 17.4847 3.94305 17.4532 4.01898C17.4217 4.09491 17.3755 4.16388 17.3173 4.22194L3.56731 17.9719C3.44995 18.0893 3.29078 18.1552 3.12481 18.1552C2.95884 18.1552 2.79967 18.0893 2.68231 17.9719C2.56495 17.8546 2.49902 17.6954 2.49902 17.5294C2.49902 17.3635 2.56495 17.2043 2.68231 17.0869L16.4323 3.33694C16.4904 3.27873 16.5593 3.23256 16.6353 3.20105C16.7112 3.16954 16.7926 3.15332 16.8748 3.15332C16.957 3.15332 17.0384 3.16954 17.1144 3.20105C17.1903 3.23256 17.2593 3.27873 17.3173 3.33694Z" fill="black"/>
<path fill-rule="evenodd" clip-rule="evenodd" d="M2.6824 3.33694C2.62419 3.39499 2.57801 3.46396 2.54651 3.5399C2.515 3.61583 2.49878 3.69723 2.49878 3.77944C2.49878 3.86165 2.515 3.94305 2.54651 4.01898C2.57801 4.09491 2.62419 4.16388 2.6824 4.22194L16.4324 17.9719C16.5498 18.0893 16.7089 18.1552 16.8749 18.1552C17.0409 18.1552 17.2 18.0893 17.3174 17.9719C17.4348 17.8546 17.5007 17.6954 17.5007 17.5294C17.5007 17.3635 17.4348 17.2043 17.3174 17.0869L3.5674 3.33694C3.50934 3.27873 3.44037 3.23256 3.36444 3.20105C3.28851 3.16954 3.20711 3.15332 3.1249 3.15332C3.04269 3.15332 2.96129 3.16954 2.88535 3.20105C2.80942 3.23256 2.74045 3.27873 2.6824 3.33694Z" fill="black"/>
</svg>
