<svg width="89" height="18" viewBox="0 0 89 18" fill="none" xmlns="http://www.w3.org/2000/svg">
<path fill-rule="evenodd" clip-rule="evenodd" d="M58.206 10.379C60.5351 10.379 62.4232 8.48342 62.4232 6.14513C62.4232 3.80684 60.5351 1.91128 58.206 1.91128C55.8769 1.91128 53.9887 3.80684 53.9887 6.14513C53.9887 8.48342 55.8769 10.379 58.206 10.379ZM58.206 11.7903C61.3115 11.7903 63.8289 9.26285 63.8289 6.14513C63.8289 3.02741 61.3115 0.5 58.206 0.5C55.1005 0.5 52.583 3.02741 52.583 6.14513C52.583 9.26285 55.1005 11.7903 58.206 11.7903Z" fill="#222222"/>
<path fill-rule="evenodd" clip-rule="evenodd" d="M50.0523 6.14513C50.0523 8.48342 48.1642 10.379 45.8351 10.379C43.506 10.379 41.6179 8.48342 41.6179 6.14513C41.6179 3.80684 43.506 1.91128 45.8351 1.91128C48.1642 1.91128 50.0523 3.80684 50.0523 6.14513ZM51.4581 6.14513C51.4581 9.26285 48.9406 11.7903 45.8351 11.7903C44.1557 11.7903 42.6483 11.0511 41.618 9.87923L41.618 13.9099C41.618 14.2981 41.3033 14.6128 40.9151 14.6128C40.5269 14.6128 40.2122 14.2981 40.2122 13.9099L40.2122 6.84795C40.2122 6.78527 40.2204 6.72451 40.2358 6.66669C40.2202 6.49494 40.2122 6.32098 40.2122 6.14513C40.2122 3.02741 42.7296 0.5 45.8351 0.5C48.9406 0.5 51.4581 3.02741 51.4581 6.14513Z" fill="#222222"/>
<path fill-rule="evenodd" clip-rule="evenodd" d="M66.3594 6.12794C66.3595 6.13273 66.3596 6.13753 66.3596 6.14235L66.3596 11.0874C66.3596 11.4756 66.0449 11.7902 65.6567 11.7902C65.2685 11.7902 64.9538 11.4756 64.9538 11.0874L64.9538 6.1912C64.9537 6.17586 64.9536 6.1605 64.9536 6.14513C64.9536 3.02741 67.4711 0.5 70.5766 0.5C73.6821 0.5 76.1996 3.02741 76.1996 6.14513C76.1996 6.17673 76.1993 6.20827 76.1988 6.23974C76.1997 6.25421 76.2001 6.26879 76.2001 6.28348V11.0874C76.2001 11.4756 75.8854 11.7903 75.4973 11.7903C75.1091 11.7903 74.7944 11.4756 74.7944 11.0874V9.87848C74.7942 9.87868 74.794 9.87887 74.7939 9.87906V6.00394H74.7915C74.7173 3.73101 72.8586 1.91128 70.5766 1.91128C68.2945 1.91128 66.4358 3.73101 66.3617 6.00394H66.3594V6.12004L66.3594 6.12794Z" fill="#222222"/>
<path fill-rule="evenodd" clip-rule="evenodd" d="M87.1647 6.14513C87.1647 8.48342 85.2765 10.379 82.9474 10.379C80.6183 10.379 78.7302 8.48342 78.7302 6.14513C78.7302 3.80684 80.6183 1.91128 82.9474 1.91128C85.2765 1.91128 87.1647 3.80684 87.1647 6.14513ZM82.9474 11.7903C84.6267 11.7903 86.1341 11.0512 87.1644 9.87941V11.7138H87.1621C87.1636 11.7606 87.1644 11.8076 87.1644 11.8548C87.1644 14.1931 85.2763 16.0887 82.9472 16.0887C80.6181 16.0887 78.73 14.1931 78.73 11.8548C78.73 11.8076 78.7307 11.7606 78.7323 11.7138H78.7272C78.7291 11.6925 78.7301 11.6709 78.7301 11.6491C78.7301 11.2594 78.4154 10.9435 78.0273 10.9435C77.6391 10.9435 77.3244 11.2594 77.3244 11.6491C77.3244 11.6709 77.3254 11.6925 77.3273 11.7138H77.3259C77.3248 11.7606 77.3242 11.8077 77.3242 11.8548C77.3242 14.9726 79.8417 17.5 82.9472 17.5C86.0527 17.5 88.5701 14.9726 88.5701 11.8548C88.5701 11.8333 88.57 11.8117 88.5698 11.7902H88.5708V6.14508H88.5704C88.5704 3.02738 86.0529 0.5 82.9474 0.5C79.8419 0.5 77.3245 3.02741 77.3245 6.14513C77.3245 9.26285 79.8419 11.7903 82.9474 11.7903Z" fill="#222222"/>
<path fill-rule="evenodd" clip-rule="evenodd" d="M10.411 6.14513C10.411 8.48342 8.52287 10.379 6.19377 10.379C3.86466 10.379 1.97654 8.48342 1.97654 6.14513C1.97654 3.80684 3.86466 1.91128 6.19377 1.91128C8.52287 1.91128 10.411 3.80684 10.411 6.14513ZM11.8167 6.14513C11.8167 9.26285 9.29924 11.7903 6.19377 11.7903C4.51437 11.7903 3.00693 11.0511 1.9766 9.8792L1.9766 13.9099C1.9766 14.2981 1.66191 14.6128 1.27373 14.6128C0.885542 14.6128 0.570856 14.2981 0.570856 13.9099L0.570857 6.84795C0.570857 6.78524 0.579068 6.72446 0.594473 6.66661C0.578807 6.49489 0.570801 6.32095 0.570801 6.14513C0.570801 3.02741 3.08829 0.5 6.19377 0.5C9.29924 0.5 11.8167 3.02741 11.8167 6.14513Z" fill="#222222"/>
<path fill-rule="evenodd" clip-rule="evenodd" d="M13.6445 11.7903C13.2564 11.7903 12.9417 11.4756 12.9417 11.0874L12.9417 3.31981C12.9417 2.93163 13.2564 2.61694 13.6445 2.61694C14.0327 2.61694 14.3474 2.93163 14.3474 3.31981L14.3474 11.0874C14.3474 11.4756 14.0327 11.7903 13.6445 11.7903Z" fill="#222222"/>
<path fill-rule="evenodd" clip-rule="evenodd" d="M13.6445 1.91128C13.2564 1.91128 12.9417 1.59383 12.9417 1.20564C12.9417 0.817457 13.2564 0.5 13.6445 0.5C14.0327 0.5 14.3474 0.817457 14.3474 1.20564C14.3474 1.59383 14.0327 1.91128 13.6445 1.91128Z" fill="#222222"/>
<path fill-rule="evenodd" clip-rule="evenodd" d="M16.8772 6.12315C16.8774 6.12953 16.8775 6.13593 16.8775 6.14234L16.8775 11.0874C16.8775 11.4756 16.5628 11.7902 16.1746 11.7902C15.7864 11.7902 15.4717 11.4756 15.4717 11.0874L15.4717 6.20523C15.4715 6.18522 15.4714 6.16519 15.4714 6.14513C15.4714 3.02741 17.9889 0.5 21.0944 0.5C24.1999 0.5 26.7174 3.02741 26.7174 6.14513C26.7174 6.17613 26.7171 6.20707 26.7166 6.23796C26.7176 6.25301 26.7181 6.26819 26.7181 6.28348V11.0874C26.7181 11.4756 26.4034 11.7903 26.0152 11.7903C25.627 11.7903 25.3123 11.4756 25.3123 11.0874V9.87833C25.3121 9.87858 25.3119 9.87883 25.3117 9.87907V6.00394H25.3093C25.2351 3.73101 23.3764 1.91128 21.0944 1.91128C18.8124 1.91128 16.9537 3.73101 16.8795 6.00394H16.8772V6.12256L16.8772 6.12315Z" fill="#222222"/>
<path fill-rule="evenodd" clip-rule="evenodd" d="M37.6825 6.14513C37.6825 8.48342 35.7944 10.379 33.4652 10.379C31.1361 10.379 29.248 8.48342 29.248 6.14513C29.248 3.80684 31.1361 1.91128 33.4652 1.91128C35.7944 1.91128 37.6825 3.80684 37.6825 6.14513ZM33.4652 11.7903C35.1448 11.7903 36.6524 11.051 37.6827 9.87889V11.7138H37.6804C37.6819 11.7606 37.6827 11.8076 37.6827 11.8548C37.6827 14.1931 35.7946 16.0887 33.4655 16.0887C31.1364 16.0887 29.2482 14.1931 29.2482 11.8548C29.2482 11.8076 29.249 11.7606 29.2505 11.7138H29.2451C29.247 11.6925 29.248 11.6709 29.248 11.6491C29.248 11.2594 28.9333 10.9435 28.5452 10.9435C28.157 10.9435 27.8423 11.2594 27.8423 11.6491C27.8423 11.6709 27.8433 11.6925 27.8452 11.7138H27.8442C27.8431 11.7607 27.8425 11.8077 27.8425 11.8548C27.8425 14.9726 30.36 17.5 33.4655 17.5C36.571 17.5 39.0884 14.9726 39.0884 11.8548C39.0884 11.8333 39.0883 11.8117 39.0881 11.7902H39.0887V6.14508H39.0882C39.0882 3.02738 36.5707 0.5 33.4652 0.5C30.3598 0.5 27.8423 3.02741 27.8423 6.14513C27.8423 9.26285 30.3598 11.7903 33.4652 11.7903Z" fill="#222222"/>
</svg>
