<svg width="25" height="24" viewBox="0 0 25 24" fill="none" xmlns="http://www.w3.org/2000/svg">
<g clip-path="url(#clip0_1323_8526)">
<path d="M19.7889 13.0643C19.8982 12.3963 19.9035 11.7155 19.8046 11.0458L21.3403 9.87043C21.4541 9.7835 21.5323 9.65804 21.5602 9.51757C21.5882 9.37711 21.5639 9.23128 21.492 9.10744L19.5863 5.8056C19.5146 5.68161 19.4002 5.58791 19.2645 5.54194C19.1289 5.49597 18.9811 5.50087 18.8488 5.55572L17.102 6.28353C16.5729 5.86015 15.9869 5.51308 15.3614 5.25246L15.1188 3.34074C15.0999 3.19871 15.0301 3.06836 14.9223 2.97397C14.8146 2.87958 14.6761 2.82757 14.5329 2.82764H10.7143C10.571 2.82757 10.4326 2.87958 10.3248 2.97397C10.217 3.06836 10.1472 3.19871 10.1284 3.34074L9.88457 5.21243C9.25623 5.46235 8.66585 5.79878 8.13055 6.21196L6.34255 5.47081C6.21026 5.41569 6.06241 5.41066 5.92667 5.45665C5.79093 5.50264 5.67659 5.59651 5.60504 5.72069L3.69817 9.02132C3.62656 9.14555 3.60258 9.29159 3.6307 9.4322C3.65882 9.57281 3.73713 9.69839 3.85101 9.78552L5.35394 10.9355C5.29874 11.2895 5.26954 11.6471 5.26661 12.0053C5.26917 12.3248 5.29267 12.6437 5.33696 12.96L3.80249 14.1342C3.68868 14.2211 3.61049 14.3466 3.58257 14.4871C3.55466 14.6275 3.57894 14.7733 3.65086 14.8972L5.55652 18.1917C5.62803 18.3156 5.74216 18.4093 5.87763 18.4553C6.0131 18.5013 6.16067 18.4964 6.29282 18.4416L8.03957 17.7138C8.56897 18.1381 9.15532 18.486 9.78147 18.7473L10.0241 20.659C10.0429 20.8011 10.1127 20.9314 10.2205 21.0258C10.3283 21.1202 10.4667 21.1722 10.61 21.1721H14.4273C14.5706 21.1722 14.709 21.1202 14.8168 21.0258C14.9246 20.9314 14.9944 20.8011 15.0132 20.659L15.2558 18.7861C15.884 18.5353 16.4743 18.1985 17.0098 17.7854L18.7966 18.529C18.8687 18.5583 18.9457 18.5736 19.0235 18.5738C19.127 18.574 19.2287 18.5468 19.3184 18.4951C19.4081 18.4433 19.4825 18.3688 19.5341 18.2791L21.441 14.9772C21.5124 14.8533 21.5364 14.7076 21.5085 14.5673C21.4806 14.4269 21.4028 14.3015 21.2894 14.2143L19.7889 13.0643ZM18.7748 17.2407L17.9669 16.9059L16.7988 16.4207C16.469 16.7358 16.1053 17.0132 15.7143 17.248C15.6222 17.3026 15.5324 17.3596 15.4378 17.4093C15.0389 17.6201 14.6178 17.7857 14.1823 17.903L14.0185 19.1622L13.9106 19.9955H11.134L11.0224 19.1391L10.8586 17.8764C10.4207 17.7487 9.99836 17.5725 9.59951 17.3511C9.5049 17.299 9.41513 17.2407 9.32537 17.1837C8.94211 16.9442 8.58584 16.664 8.26276 16.348L7.10554 16.8332L6.31829 17.1607L4.92939 14.7516L5.61596 14.2264L6.62761 13.4525C6.51891 13.01 6.45992 12.5567 6.45173 12.1012C6.45173 12.0672 6.45173 12.0345 6.45173 12.0005C6.45173 11.9265 6.46022 11.8537 6.46264 11.7809C6.47895 11.3303 6.54485 10.8828 6.65915 10.4466L5.6572 9.67756L4.98397 9.16324L6.36803 6.75903L7.17469 7.09504L8.34282 7.58025C8.67466 7.26455 9.04086 6.98706 9.43454 6.75297C9.52552 6.69838 9.6165 6.64137 9.7099 6.59164C10.1069 6.38148 10.5259 6.2159 10.9593 6.09794L11.1231 4.84125L11.2322 4.00669H14.0088L14.1204 4.8643L14.2842 6.12341C14.7217 6.25132 15.1436 6.42748 15.5421 6.64865L15.8175 6.81605C16.2005 7.05527 16.5564 7.33551 16.8788 7.65182L18.0361 7.16661L18.8233 6.83909L20.2134 9.24815L19.5269 9.77339L18.5152 10.5497C18.6244 10.9921 18.6834 11.4454 18.6911 11.901C18.6911 11.935 18.6911 11.9677 18.6911 12.0029C18.6911 12.0769 18.6826 12.1485 18.6802 12.2213C18.6645 12.672 18.5986 13.1195 18.4837 13.5556L19.4856 14.3222L20.1576 14.8365L18.7748 17.2407Z" fill="#222222"/>
<path d="M12.5714 15.5329C11.8722 15.5329 11.1888 15.3255 10.6076 14.9369C10.0264 14.5484 9.5735 13.9962 9.30624 13.3502C9.03897 12.7041 8.96935 11.9934 9.10618 11.3078C9.24302 10.6222 9.58016 9.99255 10.0749 9.49862C10.5697 9.00469 11.1999 8.66864 11.8857 8.53298C12.5716 8.39732 13.2822 8.46816 13.9278 8.73654C14.5734 9.00491 15.1248 9.45876 15.5123 10.0406C15.8999 10.6225 16.1061 11.3063 16.1049 12.0054C16.1023 12.9412 15.729 13.8379 15.0667 14.499C14.4045 15.1602 13.5072 15.5319 12.5714 15.5329ZM12.5714 9.64609C12.1058 9.64585 11.6507 9.78361 11.2635 10.042C10.8762 10.3003 10.5743 10.6677 10.3957 11.0976C10.2172 11.5275 10.1701 12.0007 10.2604 12.4574C10.3507 12.914 10.5744 13.3337 10.9032 13.6633C11.2319 13.9929 11.651 14.2176 12.1074 14.3091C12.5638 14.4006 13.0372 14.3547 13.4675 14.1773C13.8979 13.9999 14.266 13.6989 14.5254 13.3123C14.7847 12.9257 14.9237 12.4709 14.9246 12.0054C14.9253 11.3805 14.6777 10.781 14.2364 10.3386C13.7952 9.89613 13.1962 9.64706 12.5714 9.64609Z" fill="#222222"/>
</g>
<defs>
<clipPath id="clip0_1323_8526">
<rect width="18" height="18.3445" fill="white" transform="translate(3.5708 2.82764)"/>
</clipPath>
</defs>
</svg>
