<svg width="106" height="33" viewBox="0 0 106 33" fill="none" xmlns="http://www.w3.org/2000/svg">
<path d="M12.7271 16.7632H15.1631V19.3912H16.0391V16.7632H18.4751V15.9472H16.0391V13.3312H15.1631V15.9472H12.7271V16.7632ZM32.7669 16.1032V15.3112H31.3029C31.5549 14.0152 31.5549 13.1032 31.5549 12.2392V11.4232H24.2949V12.2032H30.5829V12.7192C30.5829 12.8992 30.5829 13.0672 30.5709 13.2472L24.0309 13.4512L24.1509 14.2312L30.5229 13.9432C30.4749 14.3632 30.4149 14.7952 30.3069 15.3112H23.0709V16.1032H32.7669ZM31.9989 20.7592H25.1949V19.6312H31.6149V17.1232H24.1989V17.8912H30.6549V18.8992H24.2229V21.5272H31.9989V20.7592ZM43.63 21.6592V10.9072H42.682V15.1552H41.158V11.1472H40.234V21.1192H41.158V15.9592H42.682V21.6592H43.63ZM35.794 18.2752V15.8632H38.854V12.0832H34.81V12.8872H37.894V15.0592H34.846V19.0912H35.554C36.886 19.0912 38.098 19.0432 39.586 18.7912L39.514 17.9752C38.134 18.2152 37.03 18.2632 35.794 18.2752ZM54.7571 17.1352L55.2011 16.3192C53.3171 15.9712 51.2771 14.3152 51.2771 12.4912V11.6632H50.2451V12.4912C50.2451 14.3392 48.2051 15.9352 46.3331 16.3192L46.7771 17.1352C48.3851 16.7512 50.0891 15.5992 50.7611 14.0272C51.4331 15.6112 53.1251 16.7512 54.7571 17.1352ZM55.6811 20.2312V19.4152H45.9251V20.2312H55.6811ZM70.3957 15.0112V14.1832H68.7997V10.8952H67.8157V18.7792H68.7997V15.0112H70.3957ZM60.8917 16.8472H65.8357V11.8672H60.8917V16.8472ZM61.8517 12.6592H64.8757V16.0672H61.8517V12.6592ZM69.2797 20.6272H63.0877V18.0472H62.1037V21.4312H69.2797V20.6272ZM73.1828 14.5312H80.4668V13.7392H74.1668V12.0592H80.3588V11.2672H73.1828V14.5312ZM81.6308 16.1992V15.3952H71.8868V16.1992H81.6308ZM80.6948 20.7712H74.0468V19.6672H80.3708V17.1352H73.0508V17.9032H79.3988V18.9352H73.0868V21.5392H80.6948V20.7712ZM92.1578 21.6712V10.9072H91.1738V21.6712H92.1578ZM89.0018 12.0712H83.9618V12.8632H88.0058C87.8018 15.4192 86.3618 17.4832 83.4698 18.8632L83.9978 19.6672C87.5858 17.9032 89.0018 15.1792 89.0018 12.0712Z" fill="#455CD6"/>
<rect x="0.5" y="1.2832" width="105" height="31" rx="15.5" stroke="#455CD6"/>
</svg>
