<svg width="130" height="110" viewBox="0 0 130 110" fill="none" xmlns="http://www.w3.org/2000/svg">
<g clip-path="url(#clip0_732_7281)">
<path d="M114.417 74.0459H65.5105V109.783H114.417V74.0459Z" fill="#F7C9C4"/>
<path d="M117.186 42.6221H60.5484C56.0998 42.6221 52.4934 46.2159 52.4934 50.649C52.4934 55.0822 56.0998 58.676 60.5484 58.676H117.186C121.635 58.676 125.241 55.0822 125.241 50.649C125.241 46.2159 121.635 42.6221 117.186 42.6221Z" fill="#F7C9C4"/>
<path d="M105.248 22.4187C100.895 18.921 95.4701 17.0172 89.8787 17.0254C83.3702 17.0261 77.1285 19.6031 72.5263 24.1892C67.9242 28.7754 65.3384 34.9953 65.3376 41.4811V71.1002C65.3373 74.312 65.9718 77.4924 67.2049 80.4598C68.4381 83.4272 70.2457 86.1234 72.5246 88.3946C74.8035 90.6658 77.509 92.4676 80.4866 93.6967C83.4642 94.9259 86.6557 95.5586 89.8787 95.5586C96.3871 95.5571 102.629 92.9796 107.23 88.3929C111.832 83.8062 114.417 77.586 114.417 71.1002V41.4893C114.422 37.8288 113.6 34.2141 112.013 30.913C110.425 27.6118 108.113 24.7088 105.248 22.4187Z" fill="#FFD8CF"/>
<path d="M129.962 11.9525H111.431C108.372 7.62428 104.071 4.31869 99.0935 2.46941C94.1157 0.620136 88.6932 0.313585 83.5375 1.59005C78.3817 2.86651 73.7336 5.66634 70.2031 9.62212C66.6726 13.5779 64.4245 18.5048 63.754 23.7565C61.3823 24.9061 59.4078 26.7333 58.0822 29.0054C56.7566 31.2775 56.1398 33.8915 56.3106 36.5142C56.4813 39.1368 57.4318 41.6495 59.0409 43.7319C60.65 45.8142 62.8449 47.3719 65.3457 48.2066V41.4896C65.3451 39.7932 65.5207 38.1013 65.8699 36.441C69.4378 36.441 80.0726 35.7053 85.4188 27.5689C88.6298 32.8364 101.254 38.4813 113.725 35.6588C114.194 37.5673 114.431 39.5249 114.431 41.4896V48.2476C116.206 47.6745 117.841 46.7348 119.228 45.4898C120.614 44.2449 121.722 42.7226 122.479 41.0222C123.236 39.3219 123.624 37.4817 123.619 35.6217C123.614 33.7617 123.216 31.9235 122.45 30.2272C126.816 26.174 130.417 20.1272 129.962 11.9525Z" fill="#455CD6"/>
<path d="M79.9929 46.1308C81.2434 46.1308 82.2571 45.1206 82.2571 43.8745C82.2571 42.6283 81.2434 41.6182 79.9929 41.6182C78.7425 41.6182 77.7288 42.6283 77.7288 43.8745C77.7288 45.1206 78.7425 46.1308 79.9929 46.1308Z" fill="#1D2B9F"/>
<path d="M99.4651 46.1308C100.716 46.1308 101.729 45.1206 101.729 43.8745C101.729 42.6283 100.716 41.6182 99.4651 41.6182C98.2146 41.6182 97.2009 42.6283 97.2009 43.8745C97.2009 45.1206 98.2146 46.1308 99.4651 46.1308Z" fill="#1D2B9F"/>
<path d="M89.8731 55.6971C89.7639 55.6971 89.6592 55.6539 89.582 55.5769C89.5048 55.5 89.4614 55.3957 89.4614 55.2869V43.8741C89.4614 43.7653 89.5048 43.6609 89.582 43.5839C89.6592 43.507 89.7639 43.4639 89.8731 43.4639C89.9823 43.4639 90.087 43.507 90.1642 43.5839C90.2414 43.6609 90.2848 43.7653 90.2848 43.8741V55.2869C90.2848 55.3957 90.2414 55.5 90.1642 55.5769C90.087 55.6539 89.9823 55.6971 89.8731 55.6971Z" fill="#1D2B9F"/>
<path d="M60.7049 72.2305C58.5807 69.9414 51.349 73.3245 51.349 73.3245C51.349 73.3245 56.0146 66.5174 58.9594 61.5836C62.8291 55.1155 62.1897 52.7006 60.908 51.5355C59.6263 50.3704 58.1471 50.901 56.7062 52.7307C55.4465 54.3279 51.5164 60.8943 48.2779 65.7187C47.3531 62.3602 44.658 62.0813 42.3252 62.0403C40.426 59.4859 38.1371 60.4787 38.1371 60.4787C38.1371 60.4787 35.3103 57.7219 32.0993 58.381C29.127 58.2799 24.3105 69.6734 20.9705 78.6931L0 109.784H29.3658L35.0578 99.6836C37.1299 94.8619 40.2449 92.2994 40.7526 91.6458C41.7763 90.3412 46.4886 86.474 49.6913 82.7819C52.8941 79.0897 58.3145 77.829 60.4305 76.3767C61.7368 75.4769 62.9307 74.6181 60.7049 72.2305Z" fill="#FFD8CF"/>
<path d="M78.4533 54.0379C76.6663 54.0379 74.9196 53.5099 73.4338 52.5206C71.948 51.5313 70.79 50.1252 70.1062 48.4801C69.4224 46.835 69.2435 45.0246 69.5921 43.2782C69.9407 41.5317 70.8012 39.9275 72.0647 38.6683C73.3282 37.4092 74.9381 36.5516 76.6907 36.2042C78.4432 35.8568 80.2598 36.0352 81.9107 36.7166C83.5616 37.3981 84.9727 38.552 85.9654 40.0326C86.9582 41.5132 87.488 43.2539 87.488 45.0346C87.4822 47.4207 86.5285 49.7074 84.8354 51.3946C83.1423 53.0818 80.8476 54.0321 78.4533 54.0379ZM78.4533 36.8518C76.8292 36.8518 75.2416 37.3317 73.8912 38.2308C72.5408 39.13 71.4884 40.408 70.8669 41.9032C70.2454 43.3984 70.0827 45.0438 70.3996 46.6311C70.7164 48.2184 71.4985 49.6764 72.6469 50.8208C73.7953 51.9652 75.2584 52.7445 76.8513 53.0603C78.4441 53.376 80.0952 53.214 81.5956 52.5946C83.0961 51.9753 84.3785 50.9264 85.2808 49.5807C86.1831 48.2351 86.6647 46.653 86.6647 45.0346C86.6625 42.8651 85.7967 40.7849 84.2572 39.2508C82.7178 37.7167 80.6304 36.8539 78.4533 36.8518Z" fill="#1D2B9F"/>
<path d="M101.293 54.0379C99.506 54.0379 97.7591 53.5099 96.2734 52.5206C94.7876 51.5313 93.6296 50.1252 92.9458 48.4801C92.262 46.835 92.0831 45.0246 92.4317 43.2782C92.7803 41.5317 93.6408 39.9275 94.9043 38.6683C96.1678 37.4092 97.7777 36.5516 99.5302 36.2042C101.283 35.8568 103.099 36.0352 104.75 36.7166C106.401 37.3981 107.812 38.552 108.805 40.0326C109.798 41.5132 110.328 43.2539 110.328 45.0346C110.322 47.4207 109.368 49.7074 107.675 51.3946C105.982 53.0818 103.687 54.0321 101.293 54.0379ZM101.293 36.8518C99.6688 36.8518 98.0812 37.3317 96.7308 38.2308C95.3805 39.13 94.328 40.408 93.7065 41.9032C93.085 43.3984 92.9223 45.0438 93.2392 46.6311C93.556 48.2184 94.3381 49.6764 95.4865 50.8208C96.6349 51.9652 98.098 52.7445 99.6909 53.0603C101.284 53.376 102.935 53.214 104.435 52.5946C105.936 51.9753 107.218 50.9264 108.12 49.5807C109.023 48.2351 109.504 46.653 109.504 45.0346C109.499 42.8662 108.632 40.7882 107.093 39.2548C105.554 37.7215 103.469 36.8576 101.293 36.8518Z" fill="#1D2B9F"/>
<path d="M93.2296 42.384H86.5167C86.4075 42.384 86.3028 42.3407 86.2256 42.2638C86.1484 42.1868 86.105 42.0825 86.105 41.9737C86.105 41.8649 86.1484 41.7606 86.2256 41.6837C86.3028 41.6067 86.4075 41.5635 86.5167 41.5635H93.2296C93.3388 41.5635 93.4435 41.6067 93.5207 41.6837C93.5979 41.7606 93.6413 41.8649 93.6413 41.9737C93.6413 42.0825 93.5979 42.1868 93.5207 42.2638C93.4435 42.3407 93.3388 42.384 93.2296 42.384Z" fill="#1D2B9F"/>
<g clip-path="url(#clip1_732_7281)">
<path d="M34.7468 37.5863C35.3655 35.9224 37.5996 33.897 40.6405 32.422C43.6814 30.9469 46.557 30.4516 48.2762 30.9424C48.3637 30.9638 48.4556 30.9602 48.5414 30.932C48.6271 30.9037 48.7032 30.8519 48.7607 30.7827C48.8182 30.7135 48.8548 30.6296 48.8663 30.5409C48.8777 30.4521 48.8636 30.362 48.8254 30.2812L39.843 11.9733C38.9128 10.3243 34.9575 10.5616 30.899 12.5294C26.8406 14.4972 24.2263 17.463 24.9832 19.2625L34.2228 38.2024C34.3484 38.1413 34.4599 38.0549 34.5501 37.9488C34.6403 37.8427 34.7073 37.7192 34.7468 37.5863Z" fill="#FF785F"/>
<path d="M33.4634 38.2179C31.7695 37.682 28.7813 38.1844 25.7404 39.6594C22.6995 41.1344 20.5495 43.0979 19.8855 44.737C19.8527 44.8219 19.7954 44.8955 19.7208 44.9485C19.6461 45.0016 19.5574 45.0316 19.4659 45.0349C19.3743 45.0382 19.284 45.0147 19.2062 44.9672C19.1284 44.9197 19.0666 44.8504 19.0286 44.768L10.0462 26.46C9.31777 24.7155 11.932 21.7497 15.9738 19.7236C20.0156 17.6975 23.9875 17.5185 24.9211 19.1791L34.1608 38.1191C33.9462 38.2304 33.7 38.2653 33.4634 38.2179Z" fill="#FF785F"/>
<path d="M34.388 38.735C34.2505 38.7715 34.1049 38.7604 33.9752 38.7035C33.8455 38.6467 33.7395 38.5476 33.6747 38.4225L24.4317 19.471C24.3609 19.3276 24.3503 19.1619 24.4023 19.0101C24.4543 18.8583 24.5645 18.7328 24.7091 18.6608C24.8564 18.5928 25.0244 18.5843 25.1773 18.637C25.3302 18.6896 25.4561 18.7994 25.5283 18.9429L34.7713 37.8945C34.808 37.9654 34.8295 38.0431 34.8346 38.1228C34.8396 38.2024 34.828 38.2823 34.8006 38.3576C34.7732 38.4328 34.7304 38.5017 34.6751 38.56C34.6197 38.6183 34.5529 38.6647 34.4788 38.6965L34.388 38.735Z" fill="#455CD6"/>
</g>
</g>
<defs>
<clipPath id="clip0_732_7281">
<rect width="130" height="109" fill="white" transform="translate(0 0.783203)"/>
</clipPath>
<clipPath id="clip1_732_7281">
<rect width="36.2435" height="28.4071" fill="white" transform="translate(7.85986 18.8203) rotate(-15.9699)"/>
</clipPath>
</defs>
</svg>
