<svg width="70" height="33" viewBox="0 0 70 33" fill="none" xmlns="http://www.w3.org/2000/svg">
<rect y="0.75" width="70" height="32" rx="16" fill="#455CD6"/>
<path d="M13.4979 16.622L13.8819 17.402C15.6099 17.078 17.1699 16.226 17.8419 14.906C18.5139 16.226 20.0619 17.078 21.7899 17.402L22.1739 16.622C20.0859 16.298 18.3339 15.026 18.3339 13.37H21.7899V12.578H18.3339V11.114H17.3379V12.578H13.8699V13.37H17.3379C17.3379 15.026 15.5859 16.298 13.4979 16.622ZM22.7259 20.282V19.466H18.3339V17.018H17.3379V19.466H12.9579V20.282H22.7259ZM33.5409 21.638V10.874H32.5929V15.194H31.0689V11.114H30.1449V21.098H31.0689V15.998H32.5929V21.638H33.5409ZM25.7529 18.17V12.986H28.7889V12.182H24.7809V18.986H25.4889C27.0849 18.986 28.2009 18.95 29.4729 18.662L29.3889 17.846C28.2249 18.098 27.1809 18.17 25.7529 18.17ZM44.128 16.13H45.892V15.302H44.128V10.886H43.144V21.638H44.128V16.13ZM42.124 12.602H39.472V11.006H38.488V12.602H35.776V13.394H42.124V12.602ZM38.992 14.282C37.48 14.282 36.388 15.326 36.388 16.766C36.388 18.242 37.48 19.238 38.992 19.238C40.528 19.238 41.62 18.242 41.62 16.766C41.62 15.326 40.528 14.282 38.992 14.282ZM38.992 18.422C38.02 18.422 37.312 17.726 37.312 16.766C37.312 15.806 38.02 15.098 38.992 15.098C39.988 15.098 40.684 15.806 40.684 16.766C40.684 17.726 39.988 18.422 38.992 18.422ZM56.1071 21.638V10.874H55.1231V21.638H56.1071ZM52.9511 12.038H47.9111V12.83H51.9551C51.7511 15.386 50.3111 17.45 47.4191 18.83L47.9471 19.634C51.5351 17.87 52.9511 15.146 52.9511 12.038Z" fill="#F5F5F5"/>
</svg>
